<svg id="레이어_1" data-name="레이어 1" xmlns="http://www.w3.org/2000/svg" viewBox="0 0 182.69 44.4"><defs><style>.cls-1{fill:#19c7f3;}</style></defs><path class="cls-1" d="M135.73,44.9a1.73,1.73,0,0,1-.32,0,1.57,1.57,0,0,1-1.08-.84,5,5,0,0,1-.34-.85,2.64,2.64,0,0,0-.1-.3l-.21-.42a8.35,8.35,0,0,1-.69,1c-1.07,1.37-2.74,1.26-3.84,1.18l-.61,0H127.4c-.77,0-1.55,0-2.33,0a3.61,3.61,0,0,1-2.7-1.32h0a3.09,3.09,0,0,1-2.13,0l-.15,0a7.58,7.58,0,0,0-1.26-.09,24.14,24.14,0,0,1-3-.24q-.77-.1-1.56-.18L113,42.62l-2.25-.18h-.63c-.65,0-1.32,0-1.95,0a7.73,7.73,0,0,1-2.22-.23l-.42-.15h0a2.35,2.35,0,0,1-1.78,1h-.11a14.79,14.79,0,0,1-2.47.26h-.35a18.5,18.5,0,0,1-3.22-.13A2.9,2.9,0,0,1,96,42.65a1.9,1.9,0,0,1-.65-1.73,2.43,2.43,0,0,1,.84-1.48,1.53,1.53,0,0,1,.3-1.08,5.92,5.92,0,0,1,3-2c-.08-.26-.14-.5-.2-.73l-.07-.29a2.47,2.47,0,0,1-.23-.82,1.55,1.55,0,0,1,.2-.88,19.63,19.63,0,0,1-6-8.58,22.76,22.76,0,0,1-.92-10.59c.51-3.3,1.58-7.41,5.38-10A10.64,10.64,0,0,1,108.24,4a16.33,16.33,0,0,1,5.19,3.71,8.73,8.73,0,0,1,1.95-2c.44-.31.86-.64,1.29-1a20.07,20.07,0,0,1,5.26-3.17A19.05,19.05,0,0,1,132.41,1,21.33,21.33,0,0,1,143,7.55,14.26,14.26,0,0,1,146.4,20.6a2.86,2.86,0,0,1-.07.28,21.27,21.27,0,0,1,2.09.72l1,.36,1.66.55a18.66,18.66,0,0,1,7,3.41l1,.91a25.75,25.75,0,0,1,5.82,6.29h0c.35,0,.71.06,1.07.08a14.34,14.34,0,0,1,1.68.15l.3,0a9.31,9.31,0,0,1,2.85.78,5.11,5.11,0,0,1,1.9,2,3,3,0,0,1,.52,2q-.47,2.56-4.85,2.43c-.83,0-1.63,0-2.44,0h-.85a1.39,1.39,0,0,1-.35,0c-3.2,0-6.47.05-9.62.09s-6.45.09-9.68.09a1.06,1.06,0,0,1-.25,0v.26l-.59.49c-.67.53-1.48.39-2.54.13l-1.21-.23h0a4.52,4.52,0,0,1-.67.56,2.56,2.56,0,0,0-.36.3,6.33,6.33,0,0,1-1.92,1.39l-.2.1a7.34,7.34,0,0,0-1,.64A1.66,1.66,0,0,1,135.73,44.9ZM137,42.6h0Zm-39-.75h0Zm0,0Zm30.56-.25c.25,0,.53,0,.82,0a3.66,3.66,0,0,0,1.27,0l.36-.48a1.55,1.55,0,0,1-.52-.5l-.06,0a3.7,3.7,0,0,1-.44-.36h-.1a1.46,1.46,0,0,1-1-.17l-.3-.05a16.26,16.26,0,0,0-3.17.22l-.52,0h-.19s0,0,0,.08a2.89,2.89,0,0,0-.08.94c.3.33.39.33.52.33.76,0,1.51,0,2.26,0Zm-29.7-1.22c.61,0,1.24,0,1.9,0h.35a11.62,11.62,0,0,0,2-.2l.11,0,.12-.19c.06-.12.14-.24.2-.36a1.83,1.83,0,0,0-.85-.57c-1.21-.12-2.91.11-3.72,1.15l-.07.09A.28.28,0,0,1,98.84,40.38Zm31.31-.15h0ZM103.27,5.86A7.07,7.07,0,0,0,99.34,7c-2.25,1.52-3.47,3.9-4.1,8a19.61,19.61,0,0,0,.81,9.19c2.1,6.31,8.39,10,14.13,13,.57.3,1.16.56,1.79.83s1.15.51,1.71.79l.4.2a6.22,6.22,0,0,0,1.89.75,5.73,5.73,0,0,0,2.62-.38c1.26-.59,2.6-1.16,4-1.74a77.59,77.59,0,0,0,9.81-5.35l1.27-.77a32.32,32.32,0,0,0,6-5,14.89,14.89,0,0,0,3.14-4.41v0a1.52,1.52,0,0,1,.43-1.05c.13-.37.23-.74.32-1.11a11.31,11.31,0,0,0-2.69-10.34,18.3,18.3,0,0,0-9.09-5.69,16.11,16.11,0,0,0-8.74.53,17.24,17.24,0,0,0-4.48,2.75c-.45.33-.89.67-1.34,1a4.55,4.55,0,0,0-1.68,2.21,3.8,3.8,0,0,1,.52,1.56,1.5,1.5,0,0,1-2.92.59,1.5,1.5,0,0,1-.45-.67,4,4,0,0,1-.14-.57l-.52-.63c-.17-.2-.33-.39-.46-.56a12.36,12.36,0,0,0-4.56-3.36A8.35,8.35,0,0,0,103.27,5.86ZM170.32,38h0Zm-25.65-1.68c0,.36.11.74.18,1.14l.09.51a1.57,1.57,0,0,1,.54-.1c3.21,0,6.48,0,9.63-.09s6.13-.08,9.2-.09a1.87,1.87,0,0,1,.34,0l1.29,0c.86,0,1.71,0,2.57,0a6.72,6.72,0,0,0,1.57-.08,2.87,2.87,0,0,0-.59-.76,7,7,0,0,0-2-.48l-.31,0c-.42-.07-.88-.09-1.36-.12s-.84,0-1.26-.09l-.31,0a1.81,1.81,0,0,0-.23,0,1.47,1.47,0,0,1-1-.35,1.53,1.53,0,0,1-.57-.61c-1.13-2.27-3.31-4.15-5.42-6l-1.07-.93c-1.59-1.41-3.69-2.08-5.92-2.8l-1.4-.46a1.8,1.8,0,0,1-.08.21,1.46,1.46,0,0,0-.07.19,4.78,4.78,0,0,1-.26.62l-.16.29c-.2.37-.4.75-.62,1.11-.48.8-1,1.52-1.53,2.21l-.44.58c-.13.19-.25.39-.36.58a7.22,7.22,0,0,1-.82,1.18,14.11,14.11,0,0,1-1.32,1.27l-.18.16-.38.33a1.36,1.36,0,0,1,.29.06h.09l1.11-.08.4,1a1.75,1.75,0,0,1,.11.35l.08.06,0,.69c0,.08,0,.16,0,.24S144.66,36.23,144.67,36.35Zm-107,1a1.5,1.5,0,0,1-1.34-.83c-1-2-2.31-4.39-3.87-7A1.5,1.5,0,1,1,35,28c1.6,2.71,2.93,5.14,4,7.22a1.5,1.5,0,0,1-.67,2A1.47,1.47,0,0,1,37.63,37.38Zm30.06-1.66a1.86,1.86,0,0,1-1.25-.44,2.54,2.54,0,0,1-.71-2c0-.07,0-.22,0-.37h-.14l-.62,0c-1.62,0-3.83-.13-5-2.39a6.25,6.25,0,0,1-.52-3.72,8.33,8.33,0,0,1-2.44-1,1.5,1.5,0,1,1,1.58-2.55,5.26,5.26,0,0,0,1.42.61,3.77,3.77,0,0,1,2.79-2.69,3.58,3.58,0,0,1,3.28.15,3,3,0,0,1,1.07,2.56c0,2.13-2.9,2.78-3.86,3-.27.06-.55.1-.84.14A3.61,3.61,0,0,0,62.56,29c.33.63.86.74,2.48.8.22,0,.45,0,.67,0a2.23,2.23,0,0,1,.79-1,10.18,10.18,0,0,1,1-.6,6.15,6.15,0,0,0,.84-.53s0-.05.08-.11c.45-.52,1.28-1.48,2.46-1.15a1.88,1.88,0,0,1,.6.3c0-.37.1-.73.16-1.1l.07-.4a55.57,55.57,0,0,0,1-9.23,1.5,1.5,0,0,1,3,0,58.05,58.05,0,0,1-1,9.72l-.07.4c-.14.89-.25,1.78-.36,2.67-.15,1.24-.31,2.51-.56,3.76s-1,1.62-1.61,1.63h-.08a1.42,1.42,0,0,1-.77.58c-.13.05-.28.14-.44.22a3.92,3.92,0,0,1-1.81.59,4.65,4.65,0,0,0-.62.06A5,5,0,0,1,67.69,35.72Zm1.11-3.1Zm-.31-1.49c0,.28.08.74.12,1s0,.32.07.48h.16a4.35,4.35,0,0,0,.49-.24,6.81,6.81,0,0,1,.86-.4c-.07-.28-.12-.56-.18-.85a8.21,8.21,0,0,0-.17-.81c-.31.22-.62.4-.9.56Zm-2.87-1.05h0v0ZM4.5,35.6a1.5,1.5,0,0,1-1.25-.67C1.57,32.41.5,27.06.5,24.48A1.53,1.53,0,0,1,2.05,23a58.34,58.34,0,0,1,13.24-3.55,1.5,1.5,0,0,1,.5,3A56.48,56.48,0,0,0,3.56,25.6,23.28,23.28,0,0,0,4,28.52a69.16,69.16,0,0,1,10.07-.91,1.5,1.5,0,0,1,0,3,64.35,64.35,0,0,0-9.23.82,9,9,0,0,0,.86,1.83,1.5,1.5,0,0,1-.41,2.08A1.53,1.53,0,0,1,4.5,35.6Zm110.58-.91a9.74,9.74,0,0,1-2.91-.4c-1.57-.51-3.38-1.44-3.38-4.12V30a4.37,4.37,0,0,1,.57-2.61,3.82,3.82,0,0,1,.49-.68,3.7,3.7,0,0,1,1.56-1.16,1.56,1.56,0,0,1,.88-.28h.31a21.69,21.69,0,0,1,6.47.66c2,.64,4,2.65,3.88,4.92-.16,2.91-3.28,3.36-4.45,3.53A25.28,25.28,0,0,1,115.08,34.69Zm-.44-3a11.81,11.81,0,0,0,1.33,0h-.08a4.87,4.87,0,0,0-.54,0l-.56,0Zm2.25-3a1.5,1.5,0,0,1,.68,2.84l.5-.07c1.25-.18,1.87-.42,1.88-.72,0-.69-1-1.64-1.79-1.9a16.07,16.07,0,0,0-4.52-.52,1.63,1.63,0,0,1-.44.15,5.66,5.66,0,0,0-1.38.76,7.41,7.41,0,0,0,0,.79v.19a.84.84,0,0,0,.56,1,1.5,1.5,0,0,1,1-2.42,8.24,8.24,0,0,1,1.19,0h.68a7.55,7.55,0,0,1,1,0,2.41,2.41,0,0,0,.38,0ZM28,34.53a1.46,1.46,0,0,1-.77-.22A9,9,0,0,0,26,33.73,6.19,6.19,0,0,1,24,32.54a6.13,6.13,0,0,1-3.39,1.33,1.69,1.69,0,0,1-1.89-1.51,6.87,6.87,0,0,1,4.16-6.79,1.5,1.5,0,0,1,1.54,2.52,7.55,7.55,0,0,1,1.28,1.79c.36.62.71.76,1.49,1.08a10.56,10.56,0,0,1,1.63.78A1.5,1.5,0,0,1,28,34.53Zm-6.34-2.41h0Zm37.69,1.69a1.43,1.43,0,0,1-.88-.29c-5.36-3.93-10.49-8-14.3-14.33a1.5,1.5,0,1,1,2.57-1.54c3.53,5.87,8.4,9.71,13.5,13.45a1.5,1.5,0,0,1-.89,2.71ZM165,28a8.39,8.39,0,0,1-1.72-.18,1.5,1.5,0,0,1-.27-2.86,1.48,1.48,0,0,1,1.31-1.12,5.24,5.24,0,0,0,2-1.31,3.39,3.39,0,0,0,.28-.31,1.51,1.51,0,0,1-1.35-1.44,4.42,4.42,0,0,0-.75-1.63c-.72-1.18-1.71-2.79-.93-4.73a1.49,1.49,0,0,1,.73-.79,1.21,1.21,0,0,1-.05-.18,1.49,1.49,0,0,1,1.21-1.74c.42-.08.87-.22,1.35-.36a11.71,11.71,0,0,1,2.41-.54,4,4,0,0,1,.85,0c0-.13.07-.26.11-.39l.1-.32c.35-1.16.93-3.1,2.57-3.59a3,3,0,0,1,3.39,1.12l.4.43a5.67,5.67,0,0,1,2.09,4.1,4,4,0,0,1-1.63,3.15c-.18.17-.36.34-.54.53a1.5,1.5,0,1,1-2.24-2,10.33,10.33,0,0,1,.74-.74c.59-.54.67-.66.67-1,0-.7-.4-1.15-1.24-2L174,9.64l-.28-.29a7.11,7.11,0,0,0-.62,1.58l-.11.37a5.15,5.15,0,0,0-.16,2h0a4.16,4.16,0,0,1,.36,1.78v.26c.07,1.57-1,1.81-1.34,1.84-.65.08-1.46-.16-1.73-1.67-.07-.44-.15-.89-.21-1.36a2.92,2.92,0,0,0-.26-.43l-.22,0a9.29,9.29,0,0,0-1.8.42c-.41.12-.83.25-1.27.35a1.51,1.51,0,0,1-.06,1c-.2.49.07,1,.71,2a7.24,7.24,0,0,1,1.15,2.67,1.49,1.49,0,0,1,1.57,1.5,3.59,3.59,0,0,1,0,.47,1.5,1.5,0,0,1,1.83.85A12.55,12.55,0,0,0,173,23l.68,0c.5,0,2-.12,2.32-.44a4.56,4.56,0,0,0,.9-2.91c-.35-1.72,1.51-2.11,2.41-2.3.23-.05.6-.13.88-.21A4.92,4.92,0,0,0,179,15a1.5,1.5,0,1,1,2.27-1.95,6.49,6.49,0,0,1,1.88,4.76c-.16,1.73-2,2.12-3.27,2.38h0a7.9,7.9,0,0,1-1.51,4.06c-1.06,1.44-3.16,1.56-4.55,1.64l-.61,0a11.57,11.57,0,0,1-3,0A8.89,8.89,0,0,1,165,28ZM32.64,26.33H29.79a1.5,1.5,0,0,1,0-3h2.85a1.5,1.5,0,0,1,0,3Zm73.87-2.25h-.4a2.2,2.2,0,0,1-1.36-.53,1.49,1.49,0,0,1-.63-2,2.15,2.15,0,0,1,2.09-1H107a7.67,7.67,0,0,1,1.4.07,1.55,1.55,0,0,1,.57,3,2.41,2.41,0,0,1-1.27.41c-.15,0-.3,0-.44,0A6.18,6.18,0,0,1,106.51,24.08Zm1.24-3.22Zm17.83,2.72a4.42,4.42,0,0,1-2.22-.5,1.46,1.46,0,0,1-.66-.43l-.38-.25.07-.31a1.5,1.5,0,0,1,1-1.87,8.38,8.38,0,0,1,2.5-.33,2,2,0,0,1,.59.05,2.76,2.76,0,0,1,1.71.84l.6.67-.31.89a2.14,2.14,0,0,1-1.93,1.17A7.5,7.5,0,0,1,125.58,23.58ZM105.27,17a1.5,1.5,0,0,1-.56-2.89l.18-.17a4.37,4.37,0,0,1,.79-.58l.84-.42c.4-.2.8-.4,1.19-.62A1.5,1.5,0,1,1,109.17,15c-.43.24-.87.46-1.31.68l-.79.4-.19.17a3,3,0,0,1-1.18.74A1.29,1.29,0,0,1,105.27,17Zm-.43-2.94Z" transform="translate(-0.5 -0.5)"/></svg>