<svg width="34" height="34" viewBox="0 0 34 34" fill="none" xmlns="http://www.w3.org/2000/svg">
<g filter="url(#filter0_d_151_350)">
<path d="M25.4286 18.5714H17.5714V26.4286C17.5714 26.8453 17.4059 27.245 17.1112 27.5397C16.8165 27.8344 16.4168 28 16 28C15.5832 28 15.1835 27.8344 14.8888 27.5397C14.5941 27.245 14.4286 26.8453 14.4286 26.4286V18.5714H6.57143C6.15466 18.5714 5.75496 18.4059 5.46026 18.1112C5.16556 17.8165 5 17.4168 5 17C5 16.5832 5.16556 16.1835 5.46026 15.8888C5.75496 15.5941 6.15466 15.4286 6.57143 15.4286H14.4286V7.57143C14.4286 7.15466 14.5941 6.75496 14.8888 6.46026C15.1835 6.16556 15.5832 6 16 6C16.4168 6 16.8165 6.16556 17.1112 6.46026C17.4059 6.75496 17.5714 7.15466 17.5714 7.57143V15.4286H25.4286C25.8453 15.4286 26.245 15.5941 26.5397 15.8888C26.8344 16.1835 27 16.5832 27 17C27 17.4168 26.8344 17.8165 26.5397 18.1112C26.245 18.4059 25.8453 18.5714 25.4286 18.5714Z" fill="white"/>
</g>
<defs>
<filter id="filter0_d_151_350" x="0" y="0" width="34" height="34" filterUnits="userSpaceOnUse" color-interpolation-filters="sRGB">
<feFlood flood-opacity="0" result="BackgroundImageFix"/>
<feColorMatrix in="SourceAlpha" type="matrix" values="0 0 0 0 0 0 0 0 0 0 0 0 0 0 0 0 0 0 127 0" result="hardAlpha"/>
<feOffset dx="1"/>
<feGaussianBlur stdDeviation="3"/>
<feComposite in2="hardAlpha" operator="out"/>
<feColorMatrix type="matrix" values="0 0 0 0 0 0 0 0 0 0 0 0 0 0 0 0 0 0 0.25 0"/>
<feBlend mode="normal" in2="BackgroundImageFix" result="effect1_dropShadow_151_350"/>
<feBlend mode="normal" in="SourceGraphic" in2="effect1_dropShadow_151_350" result="shape"/>
</filter>
</defs>
</svg>
